<?xml version="1.0" standalone="no"?>
<!DOCTYPE svg PUBLIC "-//W3C//DTD SVG 20010904//EN"
        "http://www.w3.org/TR/2001/REC-SVG-20010904/DTD/svg10.dtd">
<svg version="1.0" xmlns="http://www.w3.org/2000/svg"
     width="7644.000000pt" height="1861.000000pt" viewBox="0 0 7644.000000 1861.000000"
     preserveAspectRatio="xMidYMid meet" fill="none" stroke="none">
  <metadata>Xone Javascript Framework</metadata>
  <g transform="translate(0.000000,1861.000000) scale(0.100000,-0.100000)"
     fill="none" stroke="none">
    <path fill="#ffd800" d="M27460 18574 c-327 -13 -626 -39 -910 -79 -1860 -264 -3552 -1210
-4765 -2665 -1017 -1221 -1710 -2874 -1969 -4700 -89 -625 -121 -1114 -120
-1850 0 -638 16 -958 75 -1490 215 -1937 905 -3674 1993 -5015 327 -403 775
-846 1181 -1170 1001 -797 2233 -1332 3515 -1529 460 -71 464 -71 1270 -71
803 0 794 0 1255 66 1780 255 3410 1131 4578 2459 532 605 981 1299 1327 2054
567 1234 864 2512 940 4035 13 261 13 1067 0 1321 -76 1496 -361 2759 -895
3960 -784 1766 -2043 3092 -3699 3895 -920 447 -1864 692 -2941 764 -162 11
-696 21 -835 15z m470 -2794 c573 -24 1035 -116 1506 -301 961 -377 1759
-1139 2323 -2220 305 -584 539 -1318 671 -2103 103 -616 144 -1145 143 -1881
0 -710 -40 -1234 -139 -1830 -234 -1397 -766 -2538 -1569 -3364 -684 -703
-1494 -1104 -2485 -1231 -833 -106 -1701 0 -2390 291 -698 295 -1302 794
-1796 1485 -660 923 -1059 2115 -1188 3554 -35 386 -41 543 -41 1105 0 561 6
725 41 1105 148 1635 621 2924 1428 3890 580 694 1304 1160 2121 1363 330 83
604 122 950 137 94 4 177 7 185 8 8 1 116 -3 240 -8z"/>
    <path fill="#ffd800" d="M27635 10694 c-170 -26 -296 -67 -431 -138 -270 -144 -479 -392 -573
-683 -44 -138 -56 -215 -56 -373 0 -158 12 -235 56 -373 131 -405 475 -712
899 -803 62 -14 127 -18 240 -18 113 0 178 4 240 18 357 77 660 307 822 623
99 193 132 330 132 553 0 223 -33 360 -132 553 -159 311 -455 539 -802 618
-83 19 -327 33 -395 23z"/>
    <path fill="#1fdf00" d="M66320 18573 c-1340 -42 -2716 -419 -3843 -1052 -903 -507 -1734
-1215 -2358 -2011 -671 -855 -1238 -1973 -1548 -3055 -458 -1599 -540 -3670
-215 -5435 229 -1244 651 -2355 1253 -3300 322 -506 759 -1029 1206 -1443 709
-657 1590 -1203 2580 -1597 780 -311 1625 -516 2550 -619 485 -55 469 -54
1430 -58 943 -5 1089 -1 1560 38 605 50 1230 141 1745 254 736 161 1466 366
1867 525 144 58 343 150 343 159 0 15 -420 2664 -423 2667 -1 2 -50 -19 -107
-45 -494 -227 -1416 -488 -2175 -615 -709 -119 -1400 -170 -2330 -171 -574 0
-735 6 -1135 46 -1943 190 -3383 937 -4300 2229 -539 759 -885 1733 -1025
2880 -12 104 -45 436 -45 463 0 4 2873 7 6385 7 l6385 0 0 788 c0 749 -7 1058
-30 1452 -147 2446 -772 4306 -1887 5611 -131 153 -449 476 -603 611 -1098
968 -2475 1509 -4180 1643 -357 28 -776 38 -1100 28z m565 -2683 c420 -29 779
-95 1131 -211 576 -189 1059 -482 1497 -909 688 -670 1118 -1540 1292 -2613
51 -318 85 -717 85 -1007 l0 -150 -4730 0 c-4678 0 -4730 0 -4730 19 0 11 15
111 34 223 61 360 136 663 251 1003 299 889 731 1600 1345 2215 256 256 484
442 790 643 727 476 1477 729 2330 786 181 12 532 12 705 1z"/>
    <path fill="#00baff" d="M46290 18533 c-1566 -38 -3386 -267 -5222 -659 -251 -53 -736 -163
-880 -199 l-68 -17 0 -8629 0 -8629 1595 0 1595 0 0 7499 c0 7134 1 7500 18
7505 57 17 570 103 897 150 897 130 1621 188 2340 189 614 1 1044 -44 1530
-163 525 -127 904 -304 1265 -589 136 -108 394 -369 491 -496 265 -348 462
-741 632 -1260 185 -563 296 -1224 347 -2055 26 -418 29 -1185 30 -5862 l0
-4918 1575 0 1576 0 -4 5503 c-2 4017 -7 5553 -15 5692 -64 1050 -175 1778
-382 2513 -415 1475 -1139 2525 -2250 3267 -969 646 -2175 1019 -3650 1130
-401 30 -925 40 -1420 28z"/>
    <path fill="#ff0054" d="M310 18156 c0 -2 1445 -1897 3210 -4211 l3210 -4207 -42 -52 c-1207
-1490 -2719 -3435 -3734 -4801 -961 -1294 -1792 -2544 -2536 -3815 -127 -217
-378 -659 -378 -666 0 -2 735 -4 1633 -4 l1632 0 90 153 c667 1131 1900 2921
2994 4347 276 361 448 578 1101 1395 316 396 694 871 839 1055 145 184 269
341 275 348 9 9 56 -42 212 -235 938 -1159 1839 -2388 2690 -3668 824 -1238
1477 -2321 1943 -3217 l93 -178 1765 0 c1677 0 1765 1 1759 18 -12 30 -294
558 -424 792 -776 1399 -1594 2682 -2671 4185 -1034 1445 -2224 3055 -3189
4315 -161 210 -165 215 -150 240 8 14 1327 1860 2932 4103 1604 2243 2920
4085 2923 4093 4 12 -218 14 -1681 14 l-1686 0 -43 -58 c-23 -32 -1018 -1427
-2212 -3100 -1193 -1673 -2172 -3041 -2175 -3041 -3 0 -1085 1394 -2406 3097
l-2401 3097 -1786 3 c-983 1 -1787 0 -1787 -2z"/>
    <path fill="#00baff" d="M46780 11895 c-8 -2 -49 -9 -90 -15 -492 -80 -900 -497 -975 -997
-96 -633 314 -1223 945 -1359 118 -26 362 -26 480 0 418 90 762 393 894 788
49 146 59 212 59 388 0 118 -4 186 -16 238 -110 484 -460 834 -939 938 -66 14
-321 28 -358 19z"/>
    <path fill="#ff0054" d="M2745 10694 c-168 -26 -282 -62 -418 -132 -335 -171 -576 -507 -632
-879 -96 -633 314 -1223 945 -1359 118 -26 362 -26 480 0 357 77 660 307 822
623 100 193 132 331 132 553 0 222 -32 360 -132 553 -159 311 -455 539 -802
618 -83 19 -327 33 -395 23z"/>
    <path fill="#ff0054" d="M14005 10694 c-170 -26 -296 -67 -431 -138 -311 -166 -534 -463 -610
-816 -14 -62 -18 -127 -18 -240 0 -222 32 -360 132 -553 162 -317 464 -546
822 -623 118 -26 362 -26 480 0 358 77 660 306 822 623 100 193 132 331 132
553 0 222 -32 360 -132 553 -159 311 -455 539 -802 618 -83 19 -327 33 -395
23z"/>
    <path fill="#00baff" d="M46708 7095 c-169 -28 -376 -114 -511 -213 -610 -447 -665 -1329
-117 -1845 578 -544 1520 -384 1883 321 97 187 130 328 130 552 0 176 -10 242
-59 388 -130 389 -467 690 -874 783 -114 26 -336 33 -452 14z"/>
    <path fill="#1fdf00" d="M75120 4705 c-8 -2 -49 -9 -90 -15 -353 -57 -685 -301 -852 -625
-100 -195 -132 -332 -132 -555 0 -222 32 -360 132 -553 162 -317 464 -546 822
-623 118 -26 362 -26 480 0 494 107 871 503 945 993 96 634 -313 1221 -947
1359 -66 14 -321 28 -358 19z"/>
  </g>
</svg>
