<?xml version="1.0" standalone="no"?>
<!DOCTYPE svg PUBLIC "-//W3C//DTD SVG 20010904//EN"
        "http://www.w3.org/TR/2001/REC-SVG-20010904/DTD/svg10.dtd">
<svg version="1.0" xmlns="http://www.w3.org/2000/svg"
     width="3700.000000pt" height="750.000000pt" viewBox="0 0 3700.000000 750.000000"
     preserveAspectRatio="xMidYMid meet" fill="none" stroke="none">
  <metadata>Xone Javascript Framework</metadata>
  <g transform="translate(0.000000,750.000000) scale(0.100000,-0.100000)"
     fill="none" stroke="none"><path
          fill="#888888" d="M15179 5450 c-442 -40 -689 -198 -775 -495 -15 -52 -18 -127 -23
-555 l-6 -495 -28 -60 c-72 -153 -231 -236 -484 -252 l-103 -6 0 -222 0 -222
108 -6 c245 -14 409 -99 478 -250 l29 -62 6 -470 c7 -530 9 -550 80 -695 116
-236 364 -349 822 -376 l117 -7 0 217 0 216 -55 0 c-75 0 -199 26 -260 56 -78
37 -121 78 -157 152 l-33 67 -5 470 c-6 448 -7 473 -28 535 -58 176 -197 289
-420 343 -64 15 -91 26 -90 36 2 8 40 22 94 36 180 46 326 149 387 275 52 106
57 158 57 611 0 389 1 421 20 482 46 150 184 235 413 256 l72 6 3 213 2 212
-67 -1 c-38 -1 -106 -5 -154 -9z"/>
    <path
            fill="#888888" d="M24370 5246 l0 -216 48 0 c166 -1 320 -78 377 -190 40 -79 45 -141
45 -569 0 -441 5 -493 55 -591 35 -69 114 -152 185 -195 51 -31 197 -84 273
-100 48 -10 31 -32 -35 -45 -192 -37 -340 -137 -407 -274 -62 -128 -63 -139
-70 -631 -7 -435 -8 -452 -29 -507 -43 -106 -133 -172 -279 -203 -37 -8 -89
-15 -115 -15 l-48 0 0 -216 0 -217 108 7 c513 33 757 176 844 493 20 73 22
109 27 573 l6 495 26 55 c70 149 212 223 452 237 l107 6 0 222 0 222 -97 6
c-107 7 -224 33 -295 67 -73 34 -124 84 -160 158 l-33 67 -6 475 c-6 510 -11
561 -64 692 -56 138 -138 224 -280 293 -136 66 -282 97 -517 111 l-118 7 0
-217z"/>
    <path
            fill="#ffd800" d="M16785 4659 c-474 -57 -802 -312 -953 -740 -116 -329 -121 -792 -11
-1121 41 -122 119 -273 191 -369 156 -207 390 -351 668 -410 126 -27 403 -32
535 -10 503 83 837 412 944 928 33 159 46 376 32 544 -32 387 -150 662 -381
883 -207 198 -459 293 -795 301 -82 2 -186 -1 -230 -6z m343 -455 c335 -68
502 -358 502 -871 0 -589 -222 -892 -653 -893 -223 0 -397 78 -503 226 -116
163 -164 358 -164 672 0 508 163 799 485 866 94 19 239 19 333 0z"/>
    <path
            fill="#00baff" d="M20025 4659 c-96 -12 -235 -53 -324 -95 -126 -59 -226 -140 -313
-254 -19 -25 -29 -32 -37 -24 -6 5 -28 85 -48 177 l-37 167 -213 0 -213 0 0
-1295 0 -1295 275 0 275 0 0 743 c0 792 3 853 51 1012 74 245 224 376 479 416
92 14 266 6 337 -15 174 -54 277 -207 303 -450 5 -50 10 -452 10 -898 l0 -808
275 0 276 0 -4 943 c-3 911 -4 945 -24 1032 -46 199 -115 329 -235 440 -180
166 -502 245 -833 204z"/>
    <path
            fill="#1fdf00" d="M22775 4663 c-463 -42 -808 -320 -960 -775 -91 -271 -109 -665 -45
-958 84 -386 310 -676 641 -822 249 -110 609 -144 975 -93 161 22 371 83 477
136 l37 19 0 220 c0 121 -4 220 -9 220 -5 0 -33 -11 -62 -24 -102 -45 -310
-106 -427 -127 -151 -26 -392 -36 -500 -20 -174 26 -298 87 -405 200 -110 117
-179 287 -194 478 l-6 83 868 0 868 0 -6 243 c-3 160 -11 274 -22 337 -66 372
-265 645 -572 787 -172 79 -429 117 -658 96z m287 -427 c103 -22 175 -61 251
-137 100 -100 155 -234 171 -421 l7 -78 -592 0 -592 0 7 59 c35 311 226 541
486 584 58 10 200 6 262 -7z"/>
    <path
            fill="#ff0054" d="M11110 4624 c0 -3 192 -285 428 -627 235 -341 428 -624 430 -629 3
-6 -648 -958 -866 -1265 l-44 -63 314 0 313 1 319 485 318 485 270 -408 c149
-224 293 -443 320 -485 l50 -78 309 0 c170 0 309 2 309 5 0 3 -205 301 -455
662 l-456 656 24 36 c14 20 210 304 436 631 l410 595 -302 3 c-166 1 -306 0
-312 -2 -6 -2 -143 -204 -304 -450 -161 -245 -296 -446 -300 -446 -3 1 -137
202 -297 448 l-291 447 -312 3 c-171 1 -311 0 -311 -4z"/>
  </g>
</svg>
